<?xml version="1.0" encoding="utf-8"?>
<!-- Svg Vector Icons : http://www.onlinewebfonts.com/icon -->
<!DOCTYPE svg PUBLIC "-//W3C//DTD SVG 1.1//EN" "http://www.w3.org/Graphics/SVG/1.1/DTD/svg11.dtd">
<svg version="1.1" xmlns="http://www.w3.org/2000/svg" xmlns:xlink="http://www.w3.org/1999/xlink" x="0px" y="0px" viewBox="0 0 1000 1000" enable-background="new 0 0 1000 1000" xml:space="preserve">
<metadata> Svg Vector Icons : http://www.onlinewebfonts.com/icon </metadata>
<g><g transform="translate(0.000000,511.000000) scale(0.100000,-0.100000)"><path d="M4117.3,4978.1c-343.7-36.1-458.3-82.7-634.4-263.1c-120.9-123.1-483.7-636.5-676.8-956.9c-154.9-256.7-454-880.5-721.4-1504.2c-127.3-297-294.9-674.7-371.3-838.1c-74.3-163.4-152.8-350.1-169.7-413.7c-178.2-623.8-150.6-1629.4,72.1-2688.1c82.7-392.5,178.2-723.5,222.8-772.3c87-95.5,407.3-131.5,655.6-74.2l125.2,29.7l203.7-127.3c261-165.5,852.9-454,1179.6-575c498.6-186.7,1069.3-328.9,1599.7-398.8c256.7-34,901.7-34,1082,0c354.3,65.8,367.1,55.2-222.8,203.7c-657.7,165.5-925,252.5-1260.2,415.8c-231.3,112.5-282.2,148.5-435,301.3c-239.7,237.6-432.8,536.8-485.8,755.3c-14.9,63.7-2.1,48.8,118.8-137.9c114.6-176.1,392.5-449.8,587.7-577.1c345.8-229.1,878.4-426.4,1546.7-575c388.3-87,594.1-159.1,755.3-261c277.9-176.1,538.9-432.8,1035.4-1020.5l248.2-290.6v2558.7V329.5l-106.1-14.8c-322.5-42.4-543.1-171.9-954.7-555.9c-360.7-337.3-536.8-468.9-740.4-551.6l-76.4-29.7l74.2,57.3c280.1,216.4,530.4,521.9,530.4,642.9c-2.1,95.5-82.7,235.5-212.1,362.8c-231.3,224.9-598.3,403.1-990.8,477.4c-655.6,123-1357.9-174-1727-732C4338-63,4335.9-63,4282.8-29c-101.8,65.8-318.2,67.9-492.2,0c-25.5-10.6-17,25.5,38.2,142.2c176.1,392.5,254.6,732,252.5,1111.7c-2.1,229.1-14.8,341.6-80.6,668.3c-127.3,625.9-114.6,1039.6,42.4,1512.7l50.9,152.8l-12.7-224.9c-10.6-195.2-6.4-235.5,31.8-320.4c23.3-55.2,59.4-108.2,82.8-118.8c163.4-89.1,721.4-150.6,1024.8-114.6c299.2,33.9,418,76.4,513.4,180.3c309.7,339.5,369.2,876.2,154.9,1406.7c-108.2,269.4-165.5,356.4-282.2,428.6C5275.8,4999.3,4838.7,5052.3,4117.3,4978.1z"/></g></g>
</svg>