<?xml version="1.0" encoding="utf-8"?>
<!-- Svg Vector Icons : http://www.onlinewebfonts.com/icon -->
<!DOCTYPE svg PUBLIC "-//W3C//DTD SVG 1.1//EN" "http://www.w3.org/Graphics/SVG/1.1/DTD/svg11.dtd">
<svg version="1.1" xmlns="http://www.w3.org/2000/svg" xmlns:xlink="http://www.w3.org/1999/xlink" x="0px" y="0px" viewBox="0 0 1000 1000" enable-background="new 0 0 1000 1000" xml:space="preserve">
<metadata> Svg Vector Icons : http://www.onlinewebfonts.com/icon </metadata>
<g><path d="M500,326.1c-43.6,0-79,35.4-79,79c0,43.6,35.4,79,79,79c43.6,0,79-35.4,79-79C579,361.5,543.6,326.1,500,326.1z"/><path d="M500,10C229.5,10,10,229.5,10,500c0,270.5,219.5,490,490,490c270.5,0,490-219.5,490-490C990,229.5,770.5,10,500,10z M500,816c0,0-221.2-244.9-221.2-410.9c0-122.3,98.9-221.2,221.2-221.2c122.3,0,221.2,98.9,221.2,221.2C721.2,571.1,500,816,500,816z"/></g>
</svg>