<?xml version="1.0" encoding="utf-8"?>
<!-- Svg Vector Icons : http://www.onlinewebfonts.com/icon -->
<!DOCTYPE svg PUBLIC "-//W3C//DTD SVG 1.1//EN" "http://www.w3.org/Graphics/SVG/1.1/DTD/svg11.dtd">
<svg version="1.1" xmlns="http://www.w3.org/2000/svg" xmlns:xlink="http://www.w3.org/1999/xlink" x="0px" y="0px" viewBox="0 0 1000 1000" enable-background="new 0 0 1000 1000" xml:space="preserve">
<metadata> Svg Vector Icons : http://www.onlinewebfonts.com/icon </metadata>
<g><g><path d="M500,10C229.4,10,10,229.4,10,500c0,270.6,219.4,490,490,490c270.6,0,490-219.4,490-490C990,229.4,770.6,10,500,10z M255,255h490c8.7,0,17.2,1.9,25,5.4l-270,315l-270-315C237.8,256.9,246.3,255,255,255L255,255z M193.8,683.8V316.3c0-1.3,0.1-2.6,0.1-3.8L373.5,522L195.9,699.6C194.5,694.5,193.8,689.2,193.8,683.8L193.8,683.8z M745,745H255c-5.4,0-10.7-0.7-15.8-2.1l174.3-174.3l86.5,101l86.5-101l174.3,174.3C755.7,744.3,750.4,745,745,745L745,745z M806.3,683.8c0,5.4-0.7,10.7-2.1,15.8L626.5,522l179.6-209.5c0.1,1.3,0.1,2.5,0.1,3.8V683.8L806.3,683.8z"/></g></g>
</svg>