<?xml version="1.0" encoding="utf-8"?>
<!-- Svg Vector Icons : http://www.onlinewebfonts.com/icon -->
<!DOCTYPE svg PUBLIC "-//W3C//DTD SVG 1.1//EN" "http://www.w3.org/Graphics/SVG/1.1/DTD/svg11.dtd">
<svg version="1.1" xmlns="http://www.w3.org/2000/svg" xmlns:xlink="http://www.w3.org/1999/xlink" x="0px" y="0px" viewBox="0 0 1000 1000" enable-background="new 0 0 1000 1000" xml:space="preserve">
<metadata> Svg Vector Icons : http://www.onlinewebfonts.com/icon </metadata>
<g><g transform="translate(0.000000,511.000000) scale(0.100000,-0.100000)"><path d="M6621.7,3487c-715.5-89.2-1341.8-378.1-1803.2-831.8c-102.8-102.8-213.3-219.1-246.3-259.8l-56.2-71.7l-174.5,75.6c-232.7,100.8-442.1,164.8-707.7,219.1c-188.1,36.8-281.1,44.6-618.5,44.6s-430.4-7.8-616.6-44.6c-639.8-128-1155.6-399.4-1584.1-827.9c-380-380-603-795-690.3-1289.4c-36.8-199.7-31-610.8,11.6-804.7c192-905.5,870.6-1622.9,1847.8-1948.6c234.6-79.5,614.6-155.1,775.6-155.1c178.4-1.9,217.2-23.3,781.4-436.3c302.5-223,573.9-413,603-424.6c69.8-27.1,151.2,3.9,188.1,69.8c27.1,46.5,23.3,93.1-42.6,521.6c-38.8,259.8-65.9,477-56.2,482.8c7.8,7.8,62.1,33,120.2,56.2C4677-2004,5122.9-1674.4,5353.7-1401c71.7,87.3,135.7,157.1,143.5,157.1c11.6,0,267.6-112.5,287-126c1.9-1.9-25.2-197.8-64-436.3c-36.8-238.5-67.9-457.6-67.9-488.6c0-77.6,77.6-151.2,159-151.2c54.3,0,162.9,71.7,643.7,424.6l579.7,422.7l166.8,13.6c1209.9,93.1,2196.8,769.8,2569.1,1764.4c172.5,455.6,172.5,1099.4,0,1555C9437.1,2620.3,8589.8,3277.6,7542.7,3458C7329.5,3494.8,6819.5,3510.3,6621.7,3487z M7292.6,3155.5c824-83.4,1555-502.2,1962.2-1128.5c411.1-634,428.5-1427.1,42.7-2068.9c-424.6-705.8-1198.3-1147.9-2123.1-1211.8c-106.6-7.7-223-25.2-257.9-40.7c-34.9-13.6-244.3-157.1-463.4-318c-219.1-160.9-399.4-290.8-403.3-287c-3.9,3.9,13.6,135.7,36.8,294.7c65.9,413,52.3,446-224.9,564.2c-116.3,52.4-178.4,89.2-176.4,106.6c1.9,15.5,32.9,98.9,71.7,186.2C6069.1-41.8,5970.3,811.3,5501,1470.5c-118.3,166.8-385.9,442.1-550.7,568.1c-71.7,54.3-131.8,110.5-131.8,120.2c0,38.8,257.9,302.5,414.9,424.6c263.7,203.6,475,319.9,779.5,424.6C6431.7,3153.5,6838.9,3202,7292.6,3155.5z M3439.9,2314c610.8-89.2,1142-350.9,1553.1-765.9c306.4-308.3,486.7-634,577.8-1037.3c50.4-223,38.8-614.6-23.3-851.2c-178.4-680.6-719.4-1258.4-1446.5-1543.4c-228.8-89.2-248.2-143.5-184.2-542.9c25.2-164.8,44.6-302.5,40.7-304.4c-1.9-3.9-193.9,131.9-424.6,302.5c-230.7,168.7-440.1,312.2-465.3,319.9c-27.2,5.8-155.1,21.3-287,31C1186.9-1940,122.4-656.5,506.3,667.8c133.8,461.5,475,913.2,907.4,1198.3c387.8,257.9,725.2,378.1,1291.3,463.4C2833,2348.9,3255.7,2339.2,3439.9,2314z"/><path d="M6972.7,2151.1C6916.5,2094.9,6247.5,72.6,6265,8.6c15.5-65.9,95-128,160.9-128c100.8,0,129.9,42.7,234.6,358.7l100.8,300.5h323.8h323.8l93.1-285c60.1-178.4,110.5-300.5,139.6-329.6c52.4-52.3,135.7-58.2,197.8-13.6c104.7,71.7,108.6,54.3-259.8,1159.5c-207.5,626.3-358.7,1047-382,1074.2C7147.2,2199.6,7025,2203.5,6972.7,2151.1z M7197.6,1170l98.9-300.5h-209.4h-209.4l98.9,300.5c54.3,164.8,104.7,300.5,110.5,300.5S7143.3,1334.8,7197.6,1170z"/><path d="M2534.5,1431.8c-48.5-21.3-89.2-102.8-124.1-254c-13.6-54.3-34.9-104.7-50.4-110.5c-15.5-5.8-116.3,5.8-224.9,25.2c-248.2,42.7-283.1,40.7-335.4-19.4c-54.3-62.1-56.2-143.5-5.8-209.4c40.7-52.4,182.3-93.1,414.9-122.2l114.4-13.6l-13.6-145.4c-5.8-79.5-11.6-180.3-11.6-224.9c-1.9-79.5-1.9-79.5-159-166.7C1658.1-72.8,1520.4-480,1805.4-796.1c114.4-128,213.3-164.8,403.3-153.2c255.9,17.5,525.4,186.1,777.5,486.7c122.1,145.4,319.9,461.5,349,554.5c11.6,38.8,23.3,42.7,73.7,33c102.8-21.3,226.9-108.6,287-201.6c71.7-112.5,77.6-273.4,17.5-391.7c-69.8-137.7-287-263.7-539-314.1c-176.4-36.8-248.2-178.4-147.4-288.9c50.4-56.2,124.1-60.1,288.9-17.5c321.9,81.4,597.2,267.6,698,473.1c201.6,411.1-15.5,909.4-451.8,1041.2c-69.8,19.4-79.5,29.1-69.8,64c56.2,178.4-110.5,314.1-250.1,205.5c-27.1-21.3-54.3-65.9-62.1-96.9c-17.5-83.4-60.1-116.3-145.4-116.3c-73.7,0-306.3-42.7-372.3-67.9c-31-13.6-33-1.9-23.3,137.7c7.8,85.3,21.3,164.8,32.9,178.4c9.7,11.6,50.4,23.3,89.2,23.3c172.6,0,837.6,133.8,1000.5,201.6c129.9,54.3,133.8,224.9,7.8,287c-64,31-73.7,31-283.1-23.3c-221-58.2-632.1-135.7-715.5-135.7c-44.6,0-44.6,0-15.5,96.9c32.9,114.4,21.3,180.3-44.6,232.7C2656.6,1453.1,2606.2,1458.9,2534.5,1431.8z M2964.9,90c-50.4-98.9-223-345.1-242.4-345.1c-9.7,0-17.5,5.8-17.5,15.5c0,7.8-13.6,73.7-29.1,149.3c-15.5,73.7-21.3,141.5-13.6,149.3c13.6,13.6,277.3,89.2,319.9,91.1C2990.1,152.1,2982.3,123,2964.9,90z M2379.3-268.7c27.1-104.7,54.3-203.6,62-221c17.4-42.7-160.9-133.8-261.8-133.8c-151.2,0-234.6,149.3-160.9,287c31,58.2,263.7,254,300.5,255.9C2325-80.6,2352.2-165.9,2379.3-268.7z"/></g></g>
</svg>