<?xml version="1.0" encoding="utf-8"?>
<!-- Svg Vector Icons : http://www.onlinewebfonts.com/icon -->
<!DOCTYPE svg PUBLIC "-//W3C//DTD SVG 1.1//EN" "http://www.w3.org/Graphics/SVG/1.1/DTD/svg11.dtd">
<svg version="1.1" xmlns="http://www.w3.org/2000/svg" xmlns:xlink="http://www.w3.org/1999/xlink" x="0px" y="0px" viewBox="0 0 1000 1000" enable-background="new 0 0 1000 1000" xml:space="preserve">
<metadata> Svg Vector Icons : http://www.onlinewebfonts.com/icon </metadata>
<g><g transform="translate(0.000000,511.000000) scale(0.100000,-0.100000)"><path d="M4682.4,4596.4c-97.7-24.9-254.7-120.6-323.6-197.2c-36.4-38.3-90-116.8-116.8-172.3c-181.9-352.3,111.1-811.9,532.4-834.9c107.2-7.7,145.5,0,239.4,42.1c61.3,28.7,151.3,91.9,201.1,139.8c247,243.2,248.9,587.9,3.8,840.7C5078.8,4556.1,4843.2,4636.6,4682.4,4596.4z M4914.1,4180.8c46-19.2,86.2-111.1,86.2-199.2c0-157-170.4-243.2-323.6-162.8c-67,32.6-78.5,61.3-78.5,183.8c0,132.1,57.4,189.6,189.6,189.6C4839.4,4192.3,4896.8,4186.6,4914.1,4180.8z"/><path d="M2775.1,4163.6c-245.1-90-421.3-329.4-425.1-574.5c-3.8-310.2,296.8-610.9,610.9-610.9c147.5,0,294.9,65.1,415.6,185.7c118.7,120.6,176.2,241.3,183.8,400.2c7.7,107.2,0,145.5-42.1,239.4c-105.3,229.8-335.1,390.6-557.3,386.8C2897.6,4190.4,2813.4,4177,2775.1,4163.6z M3106.4,3734.6c44-44,55.5-72.8,55.5-136c0-149.4-59.4-208.7-206.8-210.6c-141.7,0-195.3,53.6-195.3,197.2c0,147.5,55.5,203,206.8,204.9C3033.6,3790.2,3060.4,3778.7,3106.4,3734.6z"/><path d="M6103.2,3539.3c-63.2-49.8-1103-2117.9-1103-2192.6c0-65.1,47.9-155.1,97.7-181.9c59.4-30.6,164.7-26.8,220.2,9.6c24.9,17.2,78.5,95.7,116.8,174.3c40.2,78.5,76.6,143.6,84.3,143.6c5.7,0,704.7-337,1551.1-748.8C7916.7,331.8,8659.7-22.5,8721-41.6c124.5-40.2,352.4-47.9,490.2-15.3c434.7,99.6,752.6,582.1,677.9,1024.5c-40.2,227.9-193.4,474.9-375.3,599.4c-63.2,42.1-2022.2,997.7-2995,1461.1l-195.3,91.9l57.5,124.5c53.6,111.1,55.5,130.2,36.4,191.5C6373.3,3571.9,6212.4,3625.5,6103.2,3539.3z M7154.6,2267.8c538.1-260.4,978.5-474.9,982.4-478.7c3.8-3.8-298.7-107.2-670.2-229.8l-676-226l-534.3,262.3c-294.9,143.6-540,266.2-545.7,271.9c-17.2,15.3,427,890.4,448.1,880.9C6168.4,2744.6,6618.4,2528.2,7154.6,2267.8z M8973.8,1388.8c162.8-78.5,323.6-160.9,356.2-185.8c145.5-103.4,208.7-427,116.8-603.2c-69-132.1-237.5-256.6-388.7-285.3c-38.3-7.7-105.3-3.8-149.4,9.6c-78.5,21.1-1526.2,714.3-1558.8,746.8c-13.4,11.5,1246.6,451.9,1313.7,457.7C8671.2,1530.5,8811,1467.3,8973.8,1388.8z"/><path d="M4144.2,2909.3c-134-67-260.4-193.4-317.9-321.7c-30.6-67-42.1-128.3-42.1-233.6c0-168.5,40.2-258.5,176.2-404.1c252.8-270,612.8-264.3,865.6,11.5c227.9,250.9,227.9,543.8,0,800.4C4647.9,2964.8,4374,3024.2,4144.2,2909.3z M4492.8,2545.5c67-24.9,111.1-134,95.7-231.7c-17.2-101.5-84.2-151.3-201.1-151.3c-166.6,0-250.9,134-183.8,294.9C4243.8,2555,4368.3,2593.3,4492.8,2545.5z"/><path d="M2415.1,2547.4c-178.1-57.5-329.4-185.8-415.5-350.4c-44-84.3-51.7-126.4-51.7-245.1s7.6-160.9,51.7-245.1c67-128.3,176.2-237.5,304.5-304.5c84.3-44,126.4-51.7,245.1-51.7s160.9,7.7,245.1,51.7c128.3,67,237.5,176.2,304.5,304.5c44,84.3,51.7,126.4,51.7,245.1s-7.7,160.9-51.7,245.1c-109.2,208.7-310.2,348.5-520.9,360C2514.6,2560.8,2441.9,2556.9,2415.1,2547.4z M2654.4,2135.7c86.2-36.4,120.6-147.5,82.3-266.2c-21.1-70.9-36.4-84.3-105.3-105.3c-68.9-23-95.7-23-162.8,0c-70.8,21.1-86.2,36.4-109.1,105.3C2288.7,2072.5,2451.4,2219.9,2654.4,2135.7z"/><path d="M1656.7,910.1c-78.5-34.5-122.6-99.6-122.6-183.8c0-136,105.3-210.6,296.8-210.6h105.3v-685.5v-683.6l-873.2-1551.1C584.4-3258.8,170.7-3996,143.9-4045.8c-53.6-105.3-57.5-149.4-15.3-227.9c61.3-118.7-65.1-113,2527.7-113c2116,0,2374.5,3.8,2430.1,30.6c74.7,34.5,134.1,141.7,116.8,210.6c-7.7,26.8-421.3,773.6-921.1,1662.2L3372.5-868.9v693.2v691.3h105.3c59.4,0,136,11.5,172.3,26.8c67,28.7,124.5,113,124.5,183.8s-57.5,155.1-124.5,183.8C3556.4,948.4,1746.7,948.4,1656.7,910.1z M2955.1-227.4l5.7-741.1l381.1-676c208.7-371.5,375.3-679.8,371.5-685.5c-5.7-3.8-488.3-5.7-1072.4-3.8l-1064.7,5.7l381.1,677.9l381.1,676v744.9v744.9h306.4h304.5L2955.1-227.4z M4297.4-3344.9c187.7-333.2,337-609,333.2-612.8c-3.8-3.8-900-5.8-1989.6-3.8l-1982,5.7l195.3,344.7c107.2,189.6,260.4,463.4,342.8,608.9l147.5,262.3h1307.9h1306L4297.4-3344.9z"/></g></g>
</svg>