<?xml version="1.0" encoding="utf-8"?>
<!-- Svg Vector Icons : http://www.onlinewebfonts.com/icon -->
<!DOCTYPE svg PUBLIC "-//W3C//DTD SVG 1.1//EN" "http://www.w3.org/Graphics/SVG/1.1/DTD/svg11.dtd">
<svg version="1.1" xmlns="http://www.w3.org/2000/svg" xmlns:xlink="http://www.w3.org/1999/xlink" x="0px" y="0px" viewBox="0 0 1000 1000" enable-background="new 0 0 1000 1000" xml:space="preserve">
<metadata> Svg Vector Icons : http://www.onlinewebfonts.com/icon </metadata>
<g><path d="M947.7,366.3v156.4l37.7,43.2L913,628.6l-66.2-62.7l39.8-44.3V392.2c-213.9,87.2-271.8,114.4-319.2,135.5c-47.4,21.2-81.6,21.1-128.6,3.5c-47-17.5-260.3-98.4-371.5-151c-74.2-35.1-79-57.4,1.3-87.2c104.7-39.4,267.2-102.4,359-136.8c54.3-21.7,83-33.6,132.9-8.8c89,36.4,281.8,111.9,382.9,153.2C1031.4,338.5,972.2,351,947.7,366.3L947.7,366.3L947.7,366.3L947.7,366.3z M577.8,592.6c51.7-21.1,121.5-56,197.5-88.3v258.8c0,0-98.3,103.5-271.2,103.5c-186.2,0-286.7-103.5-286.7-103.5V521.5c58.7,23.7,124.6,44,204.3,71C470.8,609.9,533.2,615.8,577.8,592.6L577.8,592.6L577.8,592.6L577.8,592.6z"/></g>
</svg>