<?xml version="1.0" encoding="utf-8"?>
<!-- Svg Vector Icons : http://www.onlinewebfonts.com/icon -->
<!DOCTYPE svg PUBLIC "-//W3C//DTD SVG 1.1//EN" "http://www.w3.org/Graphics/SVG/1.1/DTD/svg11.dtd">
<svg version="1.1" xmlns="http://www.w3.org/2000/svg" xmlns:xlink="http://www.w3.org/1999/xlink" x="0px" y="0px" viewBox="0 0 1000 1000" enable-background="new 0 0 1000 1000" xml:space="preserve">
<metadata> Svg Vector Icons : http://www.onlinewebfonts.com/icon </metadata>
<g><path d="M500,10C229,10,10,229,10,500c0,271,219,490,490,490c271,0,490-219,490-490C990,229,771,10,500,10z M428.4,715.9c-2.1,0-4.2,0-6.2,0c-49.8,0-98.6,0-148.5,0c-19.7,0-38.4-17.6-38.4-38.4c0-140.1,0-280.3,0-421.5c0-20.8,20.8-37.4,37.4-37.4c131.8,0,262.6,0,394.5,0c17.6,0,34.3,13.5,36.3,31.1c1,4.2,1,9.3,1,13.5c0,48.8,0,97.6,0,146.4c0,2.1,0,5.2,0,7.3c-13.5,0-26,0-39.4,0c0-52.9,0-104.9,0-156.8c-12.5-2.1-356.1-4.2-390.3-2.1c0,138.1,0,277.2,0,415.3c49.8,1,101.7,1,152.6,2.1C428.4,688.9,428.4,701.4,428.4,715.9z M327.7,532.2c0-13.5,0-26,0-38.4c47.8,0,96.5,0,144.3,0c0,12.5,0,26,0,38.4C424.2,532.2,376.5,532.2,327.7,532.2z M472,585.1c0,12.5,0,26,0,38.4c-47.8,0-96.5,0-144.3,0c0-13.5,0-26,0-38.4C375.4,585.1,424.2,585.1,472,585.1z M327.7,440.8c0-12.5,0-26,0-38.4c71.6,0,143.3,0,214.9,0c0,12.5,0,24.9,0,38.4C470.9,440.8,399.3,440.8,327.7,440.8z M327.7,348.4c0-12.5,0-26,0-38.4c88.2,0,176.5,0,265.8,0c0,13.5,0,26,0,38.4C505.2,348.4,416.9,348.4,327.7,348.4z M763.7,705.6c-3.1,4.2-8.3,4.2-13.5,3.1c-14.5-3.1-28-6.2-41.5-9.3c-3.1-1-4.2,0-5.2,3.1c-4.2,12.5-9.3,26-14.5,38.4c-2.1,5.2-3.1,10.4-10.4,10.4c-6.2,1-10.4-3.1-12.5-8.3c-5.2-10.4-11.4-19.7-16.6-30.1c-10.4-18.7-20.8-38.4-31.1-57.1c-1-1-4.2-2.1-6.2-2.1c-3.1,0-6.2,1-9.3,0c-4.2-2.1-6.2,0-8.3,3.1c-6.2,10.4-11.4,21.8-16.6,32.2c-10.4,18.7-20.8,37.4-31.1,56.1c-2.1,4.2-6.2,6.2-10.4,6.2c-3.1-1-8.3-4.2-9.3-7.3c-6.2-14.5-10.4-29.1-15.6-43.6c0-1-1-1-1-3.1c-15.6,3.1-30.1,7.3-44.6,10.4c-7.3,1-13.5-1-15.6-6.2c-1-3.1-1-7.3,0-9.3c12.5-22.8,24.9-45.7,38.4-68.5c6.2-11.4,12.5-22.8,18.7-34.3c1-2.1,0-4.2-1-6.2c-6.2-12.5-8.3-27-7.3-40.5c1-23.9,8.3-45.7,22.8-64.4c16.6-21.8,38.4-35.3,64.4-40.5c27-5.2,52.9-1,76.8,13.5c16.6,10.4,30.1,23.9,39.4,40.5c7.3,13.5,12.5,28,12.5,43.6c1,16.6-1,33.2-8.3,49.8c-1,2.1,1,5.2,2.1,7.3c8.3,15.6,16.6,32.2,26,47.8c9.3,16.6,17.6,34.3,27,50.9C765.8,697.2,766.8,701.4,763.7,705.6z"/><path d="M675.4,547.8c1-42.6-30.1-71.6-66.4-71.6c-38.4,0-67.5,27-68.5,67.5c-1,36.3,29.1,68.5,67.5,67.5C646.4,612.1,674.4,582,675.4,547.8z"/><path d="M652.6,643.3c8.3,15.6,16.6,31.1,26,47.8c2.1-6.2,4.2-12.5,6.2-17.6c2.1-4.2,5.2-6.2,10.4-5.2c5.2,2.1,11.4,2.1,17.6,4.2c-9.3-17.6-18.7-34.3-28-50.9C673.4,628.7,663,636,652.6,643.3z"/><path d="M557.1,637c-8.3-5.2-15.6-10.4-22.8-15.6c-7.3,13.5-15.6,28-23.9,42.6c1,0,2.1,0,2.1,0c18.7-3.1,18.7-9.3,26,16.6c7.3-13.5,13.5-24.9,20.8-37.4C560.2,639.1,559.2,638.1,557.1,637z"/></g>
</svg>